<?xml version="1.0" encoding="utf-8"?>
<!-- Generator: Adobe Illustrator 16.0.0, SVG Export Plug-In . SVG Version: 6.00 Build 0)  -->
<!DOCTYPE svg PUBLIC "-//W3C//DTD SVG 1.1//EN" "http://www.w3.org/Graphics/SVG/1.1/DTD/svg11.dtd">
<svg version="1.1" id="Layer_1" xmlns="http://www.w3.org/2000/svg" xmlns:xlink="http://www.w3.org/1999/xlink" x="0px" y="0px"
	 width="75px" height="75px" viewBox="0 0 75 75" enable-background="new 0 0 75 75" xml:space="preserve">
<path fill="#FFFFFF" d="M37.262,42.004c-5.292,0-9.586-5.51-9.586-12.31c0-6.8,2.523-12.31,9.586-12.31
	c7.319,0,9.583,5.51,9.583,12.31C46.848,36.489,42.558,42.004,37.262,42.004z M57.745,42.163c-1.089-0.745-5.671-2.536-10.821-3.868
	c1.433-2.419,2.288-5.385,2.288-8.601c0-12.771-7.486-14.677-11.95-14.677c-7.597,0-11.953,5.351-11.953,14.677
	c0,3.14,0.814,6.047,2.187,8.436c-5.414,1.345-10.338,3.258-11.472,4.033c-0.666,0.458-2.571,1.769-3.282,12.695
	c0.687,0.98,1.429,1.92,2.226,2.808c0.398-9.632,1.681-13.06,2.394-13.548c0.891-0.61,6.027-2.62,11.573-3.913
	c2.155,2.576,5.091,4.169,8.324,4.169c3.172,0,6.048-1.534,8.189-4.017c5.307,1.293,10.097,3.175,10.956,3.764
	c1.442,0.991,2.187,7.601,2.428,14.317c0.799-0.829,1.551-1.702,2.251-2.62C60.427,44.001,58.431,42.632,57.745,42.163z"/>
</svg>
