<?xml version="1.0" encoding="utf-8"?>
<!-- Generator: Adobe Illustrator 16.0.0, SVG Export Plug-In . SVG Version: 6.00 Build 0)  -->
<!DOCTYPE svg PUBLIC "-//W3C//DTD SVG 1.1//EN" "http://www.w3.org/Graphics/SVG/1.1/DTD/svg11.dtd">
<svg version="1.1" id="Layer_1" xmlns="http://www.w3.org/2000/svg" xmlns:xlink="http://www.w3.org/1999/xlink" x="0px" y="0px"
	 width="75px" height="75px" viewBox="0 0 75 75" enable-background="new 0 0 75 75" xml:space="preserve">
<path fill="#FFFFFF" d="M65.939,20.328c0,6.776-5.493,12.269-12.268,12.269c-6.775,0-12.268-5.493-12.268-12.269
	c0-6.775,5.492-12.268,12.268-12.268C60.446,8.06,65.939,13.553,65.939,20.328"/>
<path fill="#FFFFFF" d="M34.247,65.312c-20.066,0-25.559-5.493-25.559-25.559s5.493-25.559,25.559-25.559
	c1.381,0,2.668,0.03,3.91,0.084c0.565,0.025,1.002,0.502,0.978,1.067c-0.023,0.566-0.524,1.008-1.062,0.978
	c-1.214-0.054-2.474-0.085-3.825-0.085c-18.9,0-23.515,4.615-23.515,23.515c0,18.9,4.614,23.515,23.515,23.515
	c18.901,0,23.516-4.614,23.516-23.515c0-1.349-0.031-2.61-0.086-3.82c-0.025-0.562,0.411-1.04,0.978-1.066
	c0.565,0.01,1.043,0.416,1.066,0.978c0.055,1.241,0.085,2.529,0.085,3.909C59.806,59.818,54.312,65.312,34.247,65.312z"/>
</svg>
