<svg xmlns="http://www.w3.org/2000/svg" xmlns:xlink="http://www.w3.org/1999/xlink" version="1.1" id="Your_Icon" x="0px" y="0px" width="100px" height="100px" viewBox="0 0 100 100" enable-background="new 0 0 100 100" xml:space="preserve">
<g>
	<g>
		<g>
		</g>
	</g>
	<g>
	</g>
</g>
<g>
	<circle fill="#000000" cx="24.5" cy="60.324" r="4.5"/>
	<path fill="#000000" d="M47.682,16.113v8.711H34.695c-6.149,0-12.586,4.536-14.719,10.531L17,44.824c-6.551,0-12,5.146-12,11.698   v7.302c0,6.551,5.449,12,12,12h3v8.062h9v-8.062h18.682v8.062h4.637V16.113H47.682z M25.878,37.236   c1.183-3.31,5.606-6.412,9.122-6.412h12.682v14H24L25.878,37.236z M17,69.824c-3.135,0-6-2.865-6-6v-7c0-3.135,2.865-6,6-6   l30.682,0.006v18.994H17z"/>
</g>
<path d="M92.292,45.899c2.575-2.576,3.295-6.272,2.238-9.514l-5.877,5.877c-1.644,1.644-4.312,1.644-5.956-0.001  c-1.643-1.643-1.643-4.31,0.001-5.954l5.878-5.877c-3.242-1.056-6.938-0.336-9.515,2.24c-2.911,2.912-3.495,7.264-1.767,10.761  l-18.85,18.851c-1.17,1.169-1.17,3.067-0.003,4.234c1.172,1.171,3.068,1.17,4.238,0.002l18.85-18.851  C85.028,49.396,89.379,48.812,92.292,45.899z"/>
<path d="M65.79,37.103l1.594-1.595l-6.561-3.372l-2.933,2.934l3.371,6.56l1.594-1.594l13.241,13.24v3.188l11.19,11.19  c1.692,1.691,4.433,1.691,6.122,0.001c1.691-1.69,1.691-4.431,0-6.123L82.218,50.342l-3.188,0.001L65.79,37.103z"/>
</svg>