<svg xmlns="http://www.w3.org/2000/svg" xmlns:xlink="http://www.w3.org/1999/xlink" version="1.1" id="Layer_1" x="0px" y="0px" width="100px" height="100px" viewBox="0 0 100 100" enable-background="new 0 0 100 100" xml:space="preserve">
<path d="M52.059,88.576c-20.293,0-36.802-16.509-36.802-36.802c0-18.386,13.73-34.065,31.938-36.473l3.058-0.404l-1.57,2.655  c-3.069,5.189-4.691,11.129-4.691,17.176c0,18.639,15.163,33.802,33.802,33.802c1.444,0,2.949-0.103,4.473-0.304l3.058-0.404  l-1.57,2.655C77.148,81.642,65.005,88.576,52.059,88.576z M44.613,18.806C29.395,22.23,18.257,35.904,18.257,51.774  c0,18.639,15.163,33.802,33.802,33.802c10.877,0,21.138-5.33,27.451-14.089c-0.579,0.028-1.152,0.043-1.718,0.043  c-20.293,0-36.802-16.509-36.802-36.802C40.99,29.201,42.235,23.756,44.613,18.806z"/>
</svg>