<?xml version="1.0" encoding="utf-8"?>
<!-- Generator: Adobe Illustrator 16.0.0, SVG Export Plug-In . SVG Version: 6.00 Build 0)  -->
<!DOCTYPE svg PUBLIC "-//W3C//DTD SVG 1.1//EN" "http://www.w3.org/Graphics/SVG/1.1/DTD/svg11.dtd">
<svg version="1.1" id="Layer_1" xmlns="http://www.w3.org/2000/svg" xmlns:xlink="http://www.w3.org/1999/xlink" x="0px" y="0px"
	 width="75px" height="75px" viewBox="0 0 75 75" enable-background="new 0 0 75 75" xml:space="preserve">
<rect x="9" y="36.328" fill="#FFFFFF" width="56.25" height="2.344"/>
<polygon fill="#FFFFFF" points="24.234,66.797 12.516,66.797 12.516,42.188 14.859,42.188 14.859,64.453 21.891,64.453 
	21.891,42.188 24.234,42.188 "/>
<polygon fill="#FFFFFF" points="42.984,57.422 31.266,57.422 31.266,42.188 33.609,42.188 33.609,55.078 40.641,55.078 
	40.641,42.188 42.984,42.188 "/>
<polygon fill="#FFFFFF" points="61.734,66.797 50.016,66.797 50.016,42.188 52.359,42.188 52.359,64.453 59.391,64.453 
	59.391,42.188 61.734,42.188 "/>
<polygon fill="#FFFFFF" points="24.234,32.812 21.891,32.812 21.891,19.922 14.859,19.922 14.859,32.812 12.516,32.812 
	12.516,17.578 24.234,17.578 "/>
<polygon fill="#FFFFFF" points="42.984,32.812 40.641,32.812 40.641,15.234 33.609,15.234 33.609,32.812 31.266,32.812 
	31.266,12.891 42.984,12.891 "/>
<polygon fill="#FFFFFF" points="61.734,32.812 59.391,32.812 59.391,10.547 52.359,10.547 52.359,32.812 50.016,32.812 
	50.016,8.203 61.734,8.203 "/>
</svg>
