<svg xmlns="http://www.w3.org/2000/svg" xmlns:xlink="http://www.w3.org/1999/xlink" version="1.1" id="Layer_1" x="0px" y="0px" width="100px" height="100px" viewBox="0 0 100 100" enable-background="new 0 0 100 100" xml:space="preserve">
<g>
	<path d="M49.999,23.933c1.104,0,2-0.896,2-2V14.09c0-1.104-0.896-2-2-2s-2,0.896-2,2v7.843   C47.999,23.037,48.895,23.933,49.999,23.933z"/>
	<path d="M49.999,76.073c-1.104,0-2,0.896-2,2v7.837c0,1.104,0.896,2,2,2s2-0.896,2-2v-7.837   C51.999,76.969,51.104,76.073,49.999,76.073z"/>
	<path d="M28.737,31.566c0.39,0.391,0.902,0.586,1.414,0.586s1.023-0.195,1.414-0.586c0.781-0.781,0.781-2.047,0-2.828l-5.543-5.544   c-0.78-0.781-2.047-0.781-2.828,0c-0.781,0.781-0.781,2.047,0,2.828L28.737,31.566z"/>
	<path d="M71.263,68.435c-0.781-0.781-2.048-0.78-2.829-0.001c-0.781,0.781-0.781,2.047-0.001,2.829l5.544,5.549   c0.391,0.391,0.903,0.586,1.415,0.586s1.023-0.195,1.414-0.585c0.781-0.781,0.781-2.047,0.001-2.829L71.263,68.435z"/>
	<path d="M23.93,50.001c0-1.104-0.896-2-2-2h-7.84c-1.104,0-2,0.896-2,2s0.896,2,2,2h7.84C23.034,52.001,23.93,51.105,23.93,50.001z   "/>
	<path d="M85.91,48.001h-7.84c-1.104,0-2,0.896-2,2s0.896,2,2,2h7.84c1.104,0,2-0.896,2-2S87.015,48.001,85.91,48.001z"/>
	<path d="M28.736,68.435l-5.544,5.549c-0.78,0.782-0.78,2.048,0.001,2.829c0.391,0.39,0.902,0.585,1.414,0.585   c0.512,0,1.024-0.195,1.415-0.586l5.544-5.549c0.78-0.782,0.78-2.048-0.001-2.829C30.783,67.653,29.517,67.654,28.736,68.435z"/>
	<path d="M69.848,32.152c0.512,0,1.023-0.195,1.414-0.586l5.544-5.544c0.781-0.781,0.781-2.047,0-2.828   c-0.781-0.781-2.047-0.781-2.828,0l-5.544,5.544c-0.781,0.781-0.781,2.047,0,2.828C68.824,31.957,69.336,32.152,69.848,32.152z"/>
	<path d="M50,27.645c-12.329,0-22.359,10.029-22.359,22.356C27.641,62.33,37.671,72.36,50,72.36s22.359-10.03,22.359-22.359   C72.359,37.674,62.329,27.645,50,27.645z M50,68.36c-10.124,0-18.359-8.236-18.359-18.359c0-10.122,8.236-18.356,18.359-18.356   c10.123,0,18.359,8.235,18.359,18.356C68.359,60.124,60.123,68.36,50,68.36z"/>
</g>
</svg>