<?xml version="1.0" encoding="utf-8"?>
<!-- Generator: Adobe Illustrator 16.0.0, SVG Export Plug-In . SVG Version: 6.00 Build 0)  -->
<!DOCTYPE svg PUBLIC "-//W3C//DTD SVG 1.1//EN" "http://www.w3.org/Graphics/SVG/1.1/DTD/svg11.dtd">
<svg version="1.1" id="Layer_1" xmlns="http://www.w3.org/2000/svg" xmlns:xlink="http://www.w3.org/1999/xlink" x="0px" y="0px"
	 width="100px" height="100px" viewBox="0 0 100 100" enable-background="new 0 0 100 100" xml:space="preserve">
<g>
	<path d="M49.999,68.252c-1.104,0-2,0.896-2,2v7.839c0,1.104,0.896,2,2,2c1.104,0,2.001-0.896,2.001-2v-7.839
		C52,69.146,51.104,68.252,49.999,68.252z"/>
	<path d="M71.262,60.615c-0.781-0.781-2.047-0.78-2.828-0.001c-0.781,0.78-0.781,2.048-0.002,2.829l5.545,5.546
		c0.392,0.391,0.902,0.586,1.414,0.586s1.023-0.195,1.414-0.586c0.781-0.781,0.781-2.048,0.002-2.828L71.262,60.615z"/>
	<path d="M23.929,48.335c0-1.104-0.896-2-2-2H14.09c-1.104,0-2,0.896-2,2s0.896,2,2,2h7.839
		C23.034,50.335,23.929,49.439,23.929,48.335z"/>
	<path d="M85.91,46.335h-7.84c-1.104,0-2,0.896-2,2s0.896,2,2,2h7.84c1.105,0,2-0.896,2-2S87.016,46.335,85.91,46.335z"/>
	<path d="M28.737,60.615l-5.545,5.546c-0.781,0.78-0.781,2.047,0,2.828c0.39,0.391,0.902,0.586,1.414,0.586s1.024-0.195,1.414-0.586
		l5.545-5.546c0.781-0.78,0.781-2.049,0-2.828C30.785,59.834,29.518,59.834,28.737,60.615z"/>
	<path d="M85.91,33.431H70.574c-0.008-0.019-0.018-0.038-0.026-0.056h-4.445c0.012,0.018,0.023,0.036,0.034,0.055H33.865
		c0.01-0.019,0.021-0.037,0.032-0.055h-4.444c-0.009,0.019-0.019,0.036-0.026,0.055H14.09c-1.104,0-2,0.896-2,2s0.896,2,2,2h14.064
		c-0.333,1.532-0.513,3.12-0.513,4.75c0,12.328,10.03,22.359,22.358,22.359S72.357,54.508,72.357,42.18
		c0.002-1.629-0.178-3.217-0.512-4.749H85.91c1.105,0,2-0.896,2-2S87.016,33.431,85.91,33.431z M50,60.54
		c-10.123,0-18.358-8.235-18.358-18.359c0-1.645,0.238-3.231,0.646-4.75h35.426c0.408,1.519,0.646,3.105,0.646,4.75
		C68.359,52.305,60.123,60.54,50,60.54z"/>
</g>
</svg>
