<?xml version="1.0" encoding="utf-8"?>
<!-- Generator: Adobe Illustrator 16.0.0, SVG Export Plug-In . SVG Version: 6.00 Build 0)  -->
<!DOCTYPE svg PUBLIC "-//W3C//DTD SVG 1.1//EN" "http://www.w3.org/Graphics/SVG/1.1/DTD/svg11.dtd">
<svg version="1.1" id="Layer_1" xmlns="http://www.w3.org/2000/svg" xmlns:xlink="http://www.w3.org/1999/xlink" x="0px" y="0px"
	 width="75px" height="75px" viewBox="0 0 75 75" enable-background="new 0 0 75 75" xml:space="preserve">
<path fill="#FFFFFF" d="M24.609,64.453h39.844V24.609H24.609V64.453z M66.797,66.797H22.266V22.266h44.531V66.797z"/>
<rect x="36.328" y="23.438" fill="#FFFFFF" width="2.344" height="42.188"/>
<rect x="50.391" y="23.438" fill="#FFFFFF" width="2.345" height="42.188"/>
<rect x="23.438" y="36.328" fill="#FFFFFF" width="42.188" height="2.344"/>
<rect x="23.438" y="50.391" fill="#FFFFFF" width="42.188" height="2.345"/>
<rect x="22.266" y="9.375" fill="#FFFFFF" width="2.344" height="7.031"/>
<rect x="36.328" y="9.375" fill="#FFFFFF" width="2.344" height="7.031"/>
<rect x="9.375" y="22.266" fill="#FFFFFF" width="7.031" height="2.344"/>
<rect x="9.375" y="36.328" fill="#FFFFFF" width="7.031" height="2.344"/>
<polygon fill="#FFFFFF" points="16.406,52.734 8.203,52.734 8.203,8.203 52.734,8.203 52.734,16.406 50.391,16.406 50.391,10.547 
	10.547,10.547 10.547,50.391 16.406,50.391 "/>
</svg>
